<?xml version="1.0" standalone="no"?>
<!DOCTYPE svg PUBLIC "-//W3C//DTD SVG 20010904//EN"
 "http://www.w3.org/TR/2001/REC-SVG-20010904/DTD/svg10.dtd">
<svg version="1.0" xmlns="http://www.w3.org/2000/svg"
 width="700.000000pt" height="700.000000pt" viewBox="0 0 700.000000 700.000000"
 preserveAspectRatio="xMidYMid meet">
<metadata>
Created by potrace 1.11, written by Peter Selinger 2001-2013
</metadata>
<g transform="translate(0.000000,700.000000) scale(0.100000,-0.100000)"
fill="#000000" stroke="none">
<path d="M4389 6996 c-2 -2 -26 -6 -54 -9 -81 -9 -224 -43 -310 -75 -74 -27
-213 -90 -225 -102 -3 -3 -21 -14 -40 -24 -138 -76 -353 -279 -456 -431 -117
-172 -190 -340 -233 -535 -74 -333 -35 -672 113 -982 32 -67 139 -246 154
-258 4 -3 23 -25 43 -50 308 -381 812 -587 1314 -537 185 18 359 69 530 154
233 115 470 333 604 555 87 145 164 352 192 518 22 126 29 307 17 410 -16 137
-19 158 -43 250 -67 261 -199 492 -391 684 -67 67 -216 186 -233 186 -6 0 -11
4 -11 9 0 14 -257 137 -345 165 -81 26 -177 49 -250 61 -43 7 -370 16 -376 11z
m325 -442 c115 -20 179 -40 283 -90 320 -154 542 -462 591 -823 10 -72 8 -250
-3 -326 -11 -75 -52 -208 -86 -283 -234 -506 -842 -749 -1358 -544 -312 123
-547 404 -631 753 -34 138 -33 417 1 506 5 13 7 23 4 23 -7 0 54 161 84 221
122 244 345 443 586 525 152 51 368 67 529 38z"/>
<path d="M990 6912 l-30 -30 0 -1382 c0 -1510 -3 -1427 57 -1447 16 -6 219 -9
478 -8 478 2 535 7 688 56 249 81 459 296 540 554 45 141 46 345 3 490 -55
183 -163 334 -311 435 -28 18 -51 34 -53 35 -2 2 15 30 36 64 50 77 90 176
107 267 14 69 14 321 1 342 -3 5 -8 27 -12 48 -26 168 -167 375 -322 477 -85
56 -149 81 -287 113 -16 4 -218 9 -447 11 l-418 5 -30 -30z m795 -426 c39 -7
88 -21 109 -31 55 -26 115 -90 145 -155 23 -48 26 -70 28 -165 1 -71 -4 -127
-13 -157 -19 -61 -96 -146 -166 -181 -66 -33 -133 -42 -323 -42 l-150 1 -3
372 -2 373 152 -2 c84 0 185 -6 223 -13z m30 -1180 c221 -13 319 -46 400 -138
136 -154 124 -399 -28 -550 -109 -107 -200 -130 -531 -132 l-241 -1 -3 412 -2
412 37 3 c50 4 242 1 368 -6z"/>
<path d="M170 3761 c-107 -39 -177 -154 -168 -275 10 -121 93 -218 208 -243
133 -28 269 48 314 175 33 92 5 212 -65 281 -72 73 -191 98 -289 62z"/>
<path d="M6651 3769 c-67 -20 -127 -71 -163 -140 -18 -35 -23 -60 -23 -119 1
-117 51 -196 158 -245 71 -33 165 -30 229 8 197 115 189 387 -14 482 -51 24
-132 30 -187 14z"/>
<path d="M1013 3640 c-40 -16 -54 -52 -54 -138 0 -45 5 -90 11 -101 26 -50
-105 -48 2536 -47 l2471 1 31 25 c30 24 31 29 32 95 2 112 1 115 -29 146 l-29
29 -2474 -1 c-1405 0 -2482 -4 -2495 -9z"/>
<path d="M4455 3023 c-474 -30 -874 -252 -1149 -637 -121 -169 -223 -415 -252
-604 -3 -20 -9 -53 -13 -74 -10 -42 -7 -363 4 -423 3 -22 11 -58 17 -80 6 -22
12 -51 15 -64 17 -98 114 -321 190 -440 139 -218 347 -408 573 -524 154 -80
270 -120 445 -153 104 -20 352 -25 448 -10 325 52 565 160 800 359 l57 49 1
-99 c0 -54 1 -116 0 -138 0 -107 31 -125 222 -125 159 0 187 6 213 45 16 24
17 120 16 1396 0 754 -4 1384 -7 1400 -12 53 -48 63 -228 62 -155 0 -159 -1
-183 -25 -32 -31 -32 -35 -33 -201 l-1 -138 -42 40 c-271 253 -710 408 -1093
384z m210 -447 c247 -39 452 -143 618 -312 203 -208 308 -467 309 -759 0 -426
-245 -806 -631 -976 -335 -148 -713 -120 -1004 74 -230 154 -392 401 -457 697
-19 85 -21 302 -4 395 75 406 348 728 716 845 64 20 90 26 163 36 22 4 41 7
42 8 6 5 210 -2 248 -8z"/>
<path d="M1655 3013 c-406 -64 -699 -388 -697 -769 1 -194 55 -337 177 -471
124 -136 305 -239 656 -371 209 -79 252 -99 323 -149 116 -83 163 -187 153
-337 -21 -290 -248 -494 -536 -481 -157 7 -269 53 -372 156 -73 72 -122 152
-169 277 -33 86 -59 115 -103 115 -12 0 -88 -21 -169 -47 -198 -62 -211 -82
-158 -236 101 -294 325 -526 612 -634 112 -42 196 -58 333 -61 163 -5 254 8
385 51 231 77 436 256 533 464 76 163 98 274 93 455 -6 200 -51 340 -152 474
-120 160 -295 265 -659 396 -374 135 -496 234 -498 405 -2 183 184 343 389
334 149 -7 290 -99 359 -235 23 -44 57 -69 94 -69 21 0 245 114 285 145 32 24
40 77 18 120 -33 67 -118 179 -176 232 -111 103 -245 178 -386 215 -74 19
-269 32 -335 21z"/>
</g>
</svg>
